<svg width="709" height="553" viewBox="0 0 709 553" fill="none" xmlns="http://www.w3.org/2000/svg">
<g clip-path="url(#clip0)">
<path d="M534.404 166.265C534.404 322.454 374.678 397.19 374.678 397.19C374.678 397.19 213.313 322.454 210.037 166.265C208.111 74.4608 282.649 0 372.22 0C461.792 0 534.404 74.4396 534.404 166.265Z" fill="#FFC077"/>
<path d="M391.099 351.774L390.098 350.444C437.425 313.029 493.841 248.931 493.841 156.045C493.879 123.513 484.546 91.6929 467.013 64.5767C449.481 37.4604 424.529 16.2546 395.286 3.61886L395.925 2.07227C425.464 14.8362 450.669 36.2572 468.379 63.6486C486.09 91.04 495.517 123.182 495.479 156.045C495.479 249.613 438.717 314.129 391.099 351.774Z" fill="#3F3D56"/>
<path d="M338.675 351.774L337.675 350.444C385.002 313.029 441.418 248.932 441.418 156.045C441.431 123.731 432.21 92.1217 414.895 65.1205C397.579 38.1193 372.928 16.9093 343.986 4.11053L344.635 2.56885C373.871 15.4975 398.773 36.9227 416.264 64.1979C433.755 91.4731 443.069 123.403 443.056 156.045C443.056 249.614 386.293 314.13 338.675 351.774Z" fill="#3F3D56"/>
<path d="M405.765 351.774C358.147 314.129 301.385 249.614 301.385 156.045C301.372 123.403 310.686 91.4726 328.178 64.1973C345.669 36.922 370.571 15.4968 399.807 2.56842L400.457 4.1101C371.514 16.9087 346.862 38.1186 329.547 65.1199C312.231 92.1212 303.01 123.731 303.023 156.045C303.023 248.931 359.439 313.029 406.765 350.444L405.765 351.774Z" fill="#3F3D56"/>
<path d="M353.342 351.774C305.724 314.129 248.962 249.614 248.962 156.045C248.908 123.053 258.402 90.7861 276.242 63.3271C294.081 35.8681 319.465 14.451 349.181 1.78571L349.813 3.33558C320.395 15.8736 295.266 37.0755 277.606 64.2586C259.945 91.4417 250.547 123.384 250.6 156.045C250.6 248.932 307.016 313.03 354.343 350.444L353.342 351.774Z" fill="#3F3D56"/>
<path d="M373.04 0H371.401V352.684H373.04V0Z" fill="#3F3D56"/>
<path d="M358.215 543.947H355.468L354.162 533.09H358.215V543.947Z" fill="#9F616A"/>
<path d="M358.915 546.675H350.061V546.561C350.062 545.624 350.426 544.726 351.072 544.064C351.718 543.401 352.594 543.029 353.507 543.028H358.915V546.675Z" fill="#2F2E41"/>
<path d="M393.622 538.613L391.268 540.063L384.694 531.446L388.168 529.306L393.622 538.613Z" fill="#9F616A"/>
<path d="M388.004 545.257L387.946 545.158C387.477 544.355 387.337 543.393 387.558 542.484C387.779 541.576 388.343 540.794 389.126 540.31L393.761 537.456L395.593 540.582L388.004 545.257Z" fill="#2F2E41"/>
<path d="M358.928 541.706L358.881 541.706C357.545 541.702 356.211 541.623 354.883 541.47C354.377 541.419 353.828 541.363 353.167 541.308L353.144 541.303C352.693 541.166 352.681 536.828 352.872 521.981C352.97 514.376 353.081 505.756 352.949 500.267L352.948 500.213L352.987 500.178C355.376 498.031 358.225 496.495 361.304 495.694C364.382 494.893 367.601 494.849 370.699 495.568L370.747 495.578L370.773 495.622C373.471 500.303 377.546 507.045 381.486 513.566C390.531 528.534 393.118 532.937 392.835 533.269L392.801 533.296C392.183 533.612 391.719 533.856 391.325 534.064C389.764 534.892 388.161 535.633 386.522 536.284L386.45 536.315L386.397 536.255C377.219 525.945 369.581 514.428 364.857 503.782C364.305 507.416 363.635 512.163 362.927 517.177C360.891 531.598 359.515 541.093 358.961 541.672L358.928 541.706Z" fill="#2F2E41"/>
<path d="M361.401 501.376C366.874 501.351 372.31 502.285 377.477 504.136C377.657 495.244 374.749 486.576 369.274 479.678L369.233 479.629L369.254 479.567C370.696 475.297 372.186 470.883 373.517 466.49L373.497 466.417C372.563 463.013 370.559 459.574 367.369 455.902C367.023 455.534 366.554 455.316 366.056 455.29C365.559 455.264 365.07 455.433 364.69 455.763C361.895 458.382 359.719 461.619 358.325 465.229C356.931 468.838 356.357 472.726 356.645 476.596L356.647 476.618L356.641 476.64C354.144 485.314 353.237 489.769 352.437 493.7C351.854 496.567 351.348 499.05 350.334 502.598C353.97 501.787 357.68 501.377 361.401 501.376V501.376Z" fill="#CBCBCB"/>
<path opacity="0.1" d="M369.458 473.956L361.334 492.089L356.692 487.273L369.458 473.956Z" fill="black"/>
<path d="M365.985 454.137C369.177 454.137 371.765 451.484 371.765 448.211C371.765 444.938 369.177 442.285 365.985 442.285C362.792 442.285 360.204 444.938 360.204 448.211C360.204 451.484 362.792 454.137 365.985 454.137Z" fill="#9F616A"/>
<path d="M358.976 444.863H368.155V440.762C366.14 439.941 364.169 439.244 362.977 440.762C361.916 440.762 360.898 441.194 360.148 441.963C359.398 442.732 358.976 443.776 358.976 444.863V444.863Z" fill="#2F2E41"/>
<path d="M368.663 440.038C374.15 440.038 375.686 447.089 375.686 451.067C375.686 453.285 374.707 454.079 373.169 454.347L372.626 451.378L371.354 454.475C370.922 454.477 370.469 454.469 369.998 454.46L369.567 453.549L368.605 454.443C364.753 454.449 361.64 455.025 361.64 451.067C361.64 447.089 362.987 440.038 368.663 440.038Z" fill="#2F2E41"/>
<path d="M378.104 542.72H374.737L373.135 529.407H378.104V542.72Z" fill="#B57676"/>
<path d="M372.332 541.733H378.825V545.924H368.244C368.244 545.374 368.35 544.829 368.555 544.321C368.761 543.812 369.062 543.35 369.441 542.961C369.821 542.572 370.272 542.263 370.768 542.052C371.264 541.842 371.795 541.733 372.332 541.733Z" fill="#2F2E41"/>
<path d="M390.737 542.72H387.37L385.768 529.407H390.737L390.737 542.72Z" fill="#B57676"/>
<path d="M384.965 541.733H391.458V545.924H380.877C380.877 544.813 381.307 543.747 382.074 542.961C382.841 542.175 383.881 541.733 384.965 541.733Z" fill="#2F2E41"/>
<path d="M390.325 503.069C389.962 502.83 389.655 502.512 389.425 502.138C389.195 501.764 389.048 501.343 388.994 500.904C388.94 500.466 388.981 500.02 389.113 499.599C389.245 499.179 389.465 498.792 389.759 498.468L387.542 466.217L393.928 466.852L394.103 498.436C394.602 498.977 394.889 499.687 394.911 500.431C394.933 501.175 394.687 501.902 394.222 502.473C393.756 503.044 393.102 503.42 392.384 503.53C391.666 503.64 390.933 503.476 390.325 503.069Z" fill="#B57676"/>
<path d="M377.945 536.013L374.239 535.832C373.923 535.816 373.625 535.678 373.406 535.444C373.187 535.21 373.064 534.899 373.061 534.575L372.803 496.13C372.802 495.948 372.839 495.767 372.912 495.601C372.985 495.435 373.093 495.286 373.227 495.166C373.361 495.047 373.519 494.958 373.69 494.906C373.86 494.855 374.04 494.841 374.216 494.868L389.044 497.074C389.337 497.116 389.605 497.265 389.8 497.494C389.994 497.722 390.101 498.015 390.102 498.319L392.009 533.942C392.01 534.109 391.979 534.275 391.918 534.43C391.856 534.584 391.765 534.725 391.65 534.844C391.536 534.962 391.399 535.057 391.248 535.121C391.098 535.185 390.936 535.218 390.773 535.218H386.778C386.483 535.22 386.197 535.112 385.973 534.916C385.749 534.719 385.601 534.447 385.557 534.148C385.557 534.148 382.539 507.428 382.124 507.443C381.708 507.451 379.231 534.898 379.231 534.898C379.194 535.205 379.049 535.488 378.823 535.694C378.597 535.9 378.306 536.014 378.004 536.015C377.984 536.015 377.965 536.014 377.945 536.013Z" fill="#2F2E41"/>
<path d="M388.988 477.054C388.838 476.944 388.715 476.8 388.626 476.635C388.538 476.469 388.487 476.285 388.477 476.096L388.009 467.404C387.963 466.543 388.229 465.694 388.757 465.023C389.285 464.351 390.036 463.903 390.867 463.766C391.697 463.628 392.548 463.811 393.255 464.279C393.962 464.746 394.475 465.466 394.695 466.298L396.751 474.07C396.836 474.394 396.792 474.74 396.629 475.031C396.466 475.323 396.197 475.536 395.881 475.624L390.034 477.249C389.857 477.299 389.67 477.307 389.489 477.274C389.308 477.24 389.137 477.165 388.988 477.054V477.054Z" fill="#3F3D56"/>
<path d="M383.526 456.395C387.251 456.395 390.271 453.299 390.271 449.48C390.271 445.661 387.251 442.566 383.526 442.566C379.801 442.566 376.781 445.661 376.781 449.48C376.781 453.299 379.801 456.395 383.526 456.395Z" fill="#B57676"/>
<path d="M388.299 454.951C388.017 455.263 387.654 455.485 387.253 455.593C386.851 455.7 386.429 455.688 386.034 455.558C385.639 455.428 385.289 455.185 385.024 454.857C384.759 454.53 384.591 454.132 384.54 453.71C384.527 453.564 384.528 453.418 384.543 453.272C384.627 452.441 385.096 451.686 384.984 450.808C384.958 450.589 384.879 450.381 384.753 450.203C383.75 448.826 381.396 450.818 380.45 449.572C379.87 448.808 380.552 447.605 380.107 446.751C379.519 445.624 377.778 446.18 376.687 445.563C375.472 444.876 375.545 442.966 376.344 441.804C376.865 441.117 377.526 440.557 378.282 440.162C379.038 439.768 379.869 439.549 380.717 439.521C382.414 439.48 384.1 439.818 385.658 440.51C387.498 441.123 389.121 442.277 390.327 443.829C390.95 444.846 391.346 445.992 391.484 447.185C391.622 448.378 391.5 449.588 391.126 450.726C390.718 452.123 389.326 453.829 388.299 454.951Z" fill="#2F2E41"/>
<path d="M390.258 461.014C390.141 460.927 390.022 460.843 389.9 460.759C389.252 460.318 388.551 459.965 387.814 459.711V457.894H382.596V459.58C380.867 460.069 379.315 461.069 378.136 462.454C376.956 463.84 376.199 465.551 375.961 467.374L372.408 494.415C372.385 494.584 372.396 494.757 372.44 494.921C372.484 495.086 372.56 495.239 372.663 495.373C372.765 495.506 372.891 495.616 373.035 495.697C373.18 495.778 373.338 495.828 373.502 495.844C375.991 496.175 378.39 497.017 380.554 498.32C382.125 499.213 383.894 499.676 385.691 499.664C387.117 499.659 388.532 499.401 389.872 498.901C390.099 498.815 390.297 498.662 390.439 498.462C390.582 498.261 390.663 498.022 390.674 497.774C390.801 494.864 391.55 479.884 393.728 470.747C394.152 468.955 394.048 467.074 393.431 465.342C392.813 463.61 391.709 462.104 390.258 461.014Z" fill="#3F3D56"/>
<path d="M428.739 406.427H320.617L307.511 352.684H441.845L428.739 406.427Z" fill="#3F3D56"/>
<path d="M425.053 498.335H324.302V552.16H425.053V498.335Z" fill="white"/>
<path d="M425.872 553H323.483V497.495H425.872V553ZM325.122 551.321H424.234V499.175H325.122V551.321Z" fill="#3F3D56"/>
<path d="M395.33 412.764H354.026L349.285 405.128H400.07L395.33 412.764Z" fill="#3F3D56"/>
<path d="M323.074 406.427H321.436V488.72H323.074V406.427Z" fill="#3F3D56"/>
<path d="M427.92 406.427H426.282V488.72H427.92V406.427Z" fill="#3F3D56"/>
<path d="M353.763 486.132L323.723 516.928L324.882 518.115L354.922 487.319L353.763 486.132Z" fill="#3F3D56"/>
<path d="M368.367 485.619L323.712 533.767L324.899 534.924L369.554 486.776L368.367 485.619Z" fill="#3F3D56"/>
<path d="M434.473 486.2H311.606V501.316H434.473V486.2Z" fill="white"/>
<path d="M435.292 502.155H310.787V485.361H435.292V502.155ZM312.425 500.476H433.654V487.04H312.425V500.476Z" fill="#3F3D56"/>
<path d="M351.345 493.231C351.673 493.207 351.993 493.11 352.281 492.947C352.569 492.783 352.818 492.556 353.011 492.283C353.205 492.01 353.337 491.697 353.4 491.365C353.462 491.034 353.453 490.692 353.373 490.365L360.067 485.869L356.249 484.178L350.478 488.707C349.95 488.881 349.503 489.248 349.222 489.738C348.941 490.228 348.844 490.806 348.951 491.364C349.058 491.921 349.361 492.419 349.802 492.763C350.243 493.108 350.792 493.274 351.345 493.231H351.345Z" fill="#9F616A"/>
<path d="M357.786 489.991L357.702 489.93C356.109 488.728 354.34 487.485 352.629 486.283L352.527 486.21L352.608 486.113C356.258 481.734 359.913 477.16 363.449 472.735L363.442 472.719L363.475 472.702L363.489 472.684L363.497 472.691L363.518 472.68L363.422 472.687L362.332 463.928C361.793 463.017 361.517 461.967 361.538 460.902C361.559 459.836 361.875 458.799 362.449 457.911C363.11 456.953 364.093 456.278 365.209 456.017C366.326 455.756 367.497 455.926 368.498 456.495C368.992 456.835 369.405 457.285 369.707 457.811C370.009 458.337 370.191 458.926 370.241 459.534C370.311 460.075 370.262 460.626 370.098 461.146C369.934 461.666 369.658 462.142 369.292 462.538C369.668 466.79 369.835 471.058 369.79 475.326L369.79 475.366L369.766 475.399C365.997 480.308 361.857 485.19 357.854 489.911L357.786 489.991Z" fill="#CBCBCB"/>
<path d="M359.084 463.065C359.117 463.217 359.139 463.372 359.149 463.527L370.946 470.504L373.814 468.812L376.871 472.914L370.736 477.396L357.278 466.512C356.729 466.72 356.131 466.752 355.564 466.603C354.997 466.455 354.488 466.133 354.103 465.68C353.719 465.228 353.478 464.666 353.413 464.07C353.348 463.473 353.461 462.871 353.738 462.342C354.015 461.814 354.443 461.384 354.964 461.11C355.485 460.837 356.074 460.732 356.655 460.811C357.235 460.889 357.778 461.147 358.212 461.55C358.646 461.953 358.95 462.481 359.084 463.065H359.084Z" fill="#B57676"/>
<path d="M371.368 469.911C371.348 469.723 371.37 469.533 371.431 469.355C371.493 469.177 371.592 469.015 371.723 468.882L377.727 462.726C378.322 462.116 379.116 461.753 379.956 461.708C380.796 461.663 381.623 461.938 382.277 462.481C382.931 463.023 383.366 463.795 383.497 464.647C383.629 465.499 383.449 466.37 382.991 467.094L378.715 473.848C378.536 474.13 378.256 474.327 377.936 474.397C377.615 474.467 377.281 474.404 377.006 474.221L371.924 470.841C371.769 470.738 371.639 470.601 371.543 470.44C371.447 470.28 371.387 470.099 371.368 469.911V469.911Z" fill="#3F3D56"/>
</g>
<defs>
<clipPath id="clip0">
<rect width="709" height="553" fill="white"/>
</clipPath>
</defs>
</svg>
