<?xml version="1.0" encoding="UTF-8" standalone="no"?>
<!DOCTYPE svg PUBLIC "-//W3C//DTD SVG 1.1//EN" "http://www.w3.org/Graphics/SVG/1.1/DTD/svg11.dtd">
<svg xmlns="http://www.w3.org/2000/svg" xmlns:xlink="http://www.w3.org/1999/xlink" version="1.1" width="612pt" height="792pt" viewBox="0 0 612 792">
<g enable-background="new">
<path transform="matrix(.75,0,0,.75,0,0)" d="M 0 0 L 816 0 L 816 1056 L 0 1056 Z " fill="#ffffff"/>
<path transform="matrix(.75,0,0,.75,72,72.796878)" stroke-width="1.3333334" stroke-linecap="butt" stroke-miterlimit="10" stroke-linejoin="miter" fill="none" stroke="#000000" d="M 0 26.270834 L 624 26.270834 "/>
<path transform="matrix(.75,0,0,.75,72,416.70765)" stroke-width="1.3333334" stroke-linecap="butt" stroke-miterlimit="10" stroke-linejoin="miter" fill="none" stroke="#000000" d="M 0 26.389843 L 624 26.389843 "/>
<path transform="matrix(.75,0,0,.75,72,492.01234)" stroke-width="1.3333334" stroke-linecap="butt" stroke-miterlimit="10" stroke-linejoin="miter" fill="none" stroke="#000000" d="M 0 25.983593 L 624 25.983593 "/>
<path transform="matrix(.75,0,0,.75,72,581.0631)" stroke-width="1.3333334" stroke-linecap="butt" stroke-miterlimit="10" stroke-linejoin="miter" fill="none" stroke="#000000" d="M 0 25.915886 L 624 25.915886 "/>
<path transform="matrix(.75,0,0,.75,72,642.41079)" stroke-width="1.3333334" stroke-linecap="butt" stroke-miterlimit="10" stroke-linejoin="miter" fill="none" stroke="#000000" d="M 0 25.452343 L 624 25.452343 "/>
<text xml:space="preserve" transform="matrix(.75 0 0 .75 72 36)" font-size="26.666666" font-family="TimesNewRomanPS" font-weight="bold"><tspan y="24.895834" x="227.46282 246.7131 261.53804 273.36933 280.77528 291.1488 300.02555 307.43153 320.75965 335.5846 341.7669 367.9414 375.34736 387.17866">Christian Wirt</tspan></text>
<text fill="#1155cc" xml:space="preserve" transform="matrix(.75 0 0 .75 72 58.998048)" font-size="16" font-family="TimesNewRomanPSMT"><tspan y="14.9375" x="50.816408 58.816408 63.26441 67.71241 75.71241 81.93641 86.38441 90.832408 95.2804 102.38441 110.38441 115.71241 120.16041 126.38441 130.83242 135.28041 142.38442 150.38442 155.71242 167.26442 171.71242 177.04042 181.48842 185.48842 193.48842 200.59243 205.92043 213.92043 221.92043 229.92043 237.02443 245.02443 253.02443 257.0244 264.12843 272.12843">https://christian-wirt.herokuapp.com</tspan></text>
<text xml:space="preserve" transform="matrix(.75 0 0 .75 72 58.998048)" font-size="16" font-family="TimesNewRomanPSMT"><tspan y="14.9375" x="288.54298 291.74299 295.74299 302.847 310.847 316.175 320.623 326.847 331.29499 335.74299 342.847 350.847 362.399 366.847 372.175 376.623 391.35899 399.35899 406.46299 414.46299 422.46299 430.46299 434.46299 441.567 449.567">| christianwirt@yahoo.com</tspan></text>
<text xml:space="preserve" transform="matrix(.75 0 0 .75 72 58.998048)" font-size="16" font-family="TimesNewRomanPSMT"><tspan y="14.9375" x="465.9961 469.1961 473.1961 478.5241 486.5241 494.5241 502.5241 507.8521 511.8521 519.8521 527.8521 535.8521 541.1801 549.1801 557.1801 565.1801">| (570) 898-8231</tspan></text>
<text xml:space="preserve" transform="matrix(.75 0 0 .75 72 72.796878)" font-size="21.333334" font-family="TimesNewRomanPS" font-weight="bold"><tspan y="19.916666" x="0 13.028076 22.1091 32.773164 39.875597 49.34204 57.642107 65.94217 71.86781 82.531879 94.39357 105.05763 110.98328 116.31531 130.541 141.20507 153.06676 162.5332 171.99965 177.9253 187.39174 199.25344 208.71988">Professional Experience</tspan></text>
<text xml:space="preserve" transform="matrix(.75 0 0 .75 72 92.69531)" font-size="16" font-family="TimesNewRomanPS" font-weight="bold"><tspan y="14.9375" x="0 9.203125 16.307126 23.411126 32.307126 41.203126 45.651128 52.755128 60.755128 65.203128 69.203128 79.87512 88.771129 96.771129 104.771129 112.771129 119.87513 133.20313 140.30713 149.20313 154.53113 158.53113 169.20313 178.09912 186.09912 190.54712 199.44312 206.54712 213.65113">Technical Engagement Engineer</tspan></text>
<text xml:space="preserve" transform="matrix(.75 0 0 .75 72 92.69531)" font-size="16" font-family="TimesNewRomanPS" font-weight="bold"><tspan y="14.9375" x="500 508 516 524.896 528.896 532.896 540.896 548.896 556.896 564.896 570.224 580 586.8125 593.9165 600.1405 607.2445 616.1405">Jan. 2021-Present</tspan></text>
<text xml:space="preserve" transform="matrix(.75 0 0 .75 72 106.49414)" font-size="16" font-family="TimesNewRomanPSMT"><tspan y="14.9375" x="0 11.552001 16.880002 23.984002 31.984002 39.088 49.760004 54.208005 58.656007 66.656009 70.656009 82.20801 89.31201 97.31201 104.416019 108.86401 116.86401 124.86401 131.96802 137.29602 141.29602 150.19202 158.19202 162.64002 170.64002 175.08802 179.53601 187.53601 195.53601">GrapeCity Developer Solutions</tspan></text>
<text xml:space="preserve" transform="matrix(.75 0 0 .75 72 120.29297)" font-size="16" font-family="TimesNewRomanPS" font-style="italic"><tspan y="14.9375" x="0 9.776 16.880002 21.328001 25.776001 32.88 39.984 49.760004 56.864004 64.864 72.864 79.088 83.535999 89.759998 93.759998 104.43199 114.20799 122.796878 126.796878 134.79688 142.79688 150.79688 154.50782 164.28382 171.38782 175.83582 180.28382 187.38782 194.49182 204.26782 211.37183 219.37183 227.37183 233.59583 238.04383 244.26782 251.37183 259.37184 263.37184 271.37184 279.37184 287.37184 295.37184 303.37184 309.59584 314.04383 318.04383 327.81983 335.81983 343.81983 348.26783 356.26783 363.37184 370.47584">ActiveReports.NET and ActiveReportsJS Support Engineer</tspan></text>
<text xml:space="preserve" transform="matrix(.75 0 0 .75 72 134.0918)" font-size="16" font-family="ArialMT"><tspan y="15.0078129" x="24">&#x25cf;</tspan></text>
<text xml:space="preserve" transform="matrix(.75 0 0 .75 72 134.0918)" font-size="16" font-family="TimesNewRomanPSMT"><tspan y="15.0078129" x="48 59.552003 66.656009 74.656009 81.76001 86.20801 94.20801 102.20801 109.31201 117.31201 121.31201 129.31201 134.64002 142.64002 147.08802 154.19202 161.29602 165.74402 171.96802 175.96802 183.96802 190.19202 194.64002 202.64002 210.64002 214.64002 222.64002 227.08802 235.08802 243.08802 248.41602 256.41603 263.52003 275.96803 283.07203 291.07203 299.07203 303.07203 308.40003 313.72804 320.83204 333.28004 340.38404 351.93605 359.93605 365.26405 373.26405 379.48805 383.48805 390.59205 398.59205 406.59205 410.59205 415.04005 419.48805 427.48805 432.81605 439.92005 445.24806 449.69606 456.80006 463.02406 467.02406 473.24806 481.24806 488.35206 496.35206 500.35206 507.45606 513.68008 517.68008 521.68008 533.23208 543.00808 552.4531 556.4531 563.5571 571.5571 579.5571 583.5571 594.2291 601.3331 608.43716 615.54116">Developed projects using high-demand frameworks and libraries such as .NET and React</tspan></text>
<text xml:space="preserve" transform="matrix(.75 0 0 .75 72 147.94336)" font-size="16" font-family="ArialMT"><tspan y="15.0078129" x="24">&#x25cf;</tspan></text>
<text xml:space="preserve" transform="matrix(.75 0 0 .75 72 147.94336)" font-size="16" font-family="TimesNewRomanPSMT"><tspan y="15.0078129" x="48 62.460939 67.78894 75.78894 80.23694 87.34094 91.34094 103.78894 111.78894 116.23694 120.68494 125.132938 129.58094 137.58094 145.58094 152.68494 156.68494 164.68494 170.01294 174.01294 178.46094 185.56494 192.66895 200.66895 208.66895 213.11695 220.22095 227.32495 231.77295 235.77295 243.77295 248.22095 256.22096 264.22096 270.44496 274.44496 281.54896 289.54896 297.54896 301.54896 309.54896 317.54896 325.54896 337.10096 341.54896 348.65296 356.65296 364.65296 371.75697 375.75697 383.75697 390.86097 397.08497 404.18898 408.18898 415.29298 420.62098 425.06898 429.51698 436.62098 441.06898 448.17298 454.39698 458.39698 463.72499 471.72499 477.05299 481.05299 485.05299 496.60499 506.38099 515.8047 519.8047 526.9087 534.9087 542.9087 546.9087 553.1327 562.0287 566.0287 574.9247 580.2527 588.2527 596.2527 604.2527 611.3567 615.8047">Wrote multitude of technical blogs and knowledge base articles for .NET and JS Products</tspan></text>
<text xml:space="preserve" transform="matrix(.75 0 0 .75 72 161.79492)" font-size="16" font-family="ArialMT"><tspan y="15.0078129" x="24">&#x25cf;</tspan></text>
<text xml:space="preserve" transform="matrix(.75 0 0 .75 72 161.79492)" font-size="16" font-family="TimesNewRomanPSMT"><tspan y="15.0078129" x="48 56.896 64.895999 72.895999 80.895999 88.895999 94.224 98.672 105.776 113.776 117.776 125.776 133.776 139.104 147.104 155.104 159.104 163.552 171.552 176 183.104 188.432 196.432 203.53601 207.98401 212.432 220.432 228.432 235.53601 239.98401 243.98401 251.08802 259.088 265.312 269.76 277.76 290.208 297.312 302.64 308.864 312.864 320.864 327.96803 333.29603 337.29603 348.84803 355.95204 363.05604 371.05604 375.05604 383.05604 391.05604 395.05604 399.50404 404.83204 412.83204 420.83204 428.83204 433.28004 440.38404 446.60804 454.60804 462.60804 470.60804 475.05604 479.50404 487.50404 495.50404 499.50404 506.60804 510.60804 523.056 531.056 535.504 539.952 544.4 548.848 556.848 564.848 571.952 575.952 583.952">Supported 10-15 international customers per week by troubleshooting a multitude of</tspan></text>
<text xml:space="preserve" transform="matrix(.75 0 0 .75 72 175.64649)" font-size="16" font-family="TimesNewRomanPSMT"><tspan y="14.9375" x="48 56 60.448 65.484378 70.81238 77.91638 83.244388 90.34839 98.34839 102.79639 106.79639 112.12439 120.12439 124.57239 129.02039 134.34839 140.57239 145.02039 152.12439 159.2284 167.2284 171.2284 175.2284 186.7804 196.5564 206.02344 210.02344 217.12744 225.12744 233.12744 237.12744 243.35144 250.45545 258.45545 265.55946 274.45545 281.55946 286.88746 291.33546 299.33546 303.78346 307.78346 319.33546 326.43946 334.43946 338.43946 345.54347 353.54347 361.54347 365.99147 370.43946 377.54347 384.64747 389.09547 393.54347 401.54347 409.54347 415.76747 419.76747 424.21546 432.21546 435.89845 447.45045 456.34645 460.34645 471.01844 479.01844 487.01844">different full-stack .NET and JavaScript web applications in VS Code</tspan></text>
<text xml:space="preserve" transform="matrix(.75 0 0 .75 72 189.44532)" font-size="16" font-family="TimesNewRomanPSMT"><tspan y="14.9375" x="72">o</tspan></text>
<text xml:space="preserve" transform="matrix(.75 0 0 .75 72 189.44532)" font-size="16" font-family="TimesNewRomanPSMT"><tspan y="14.9375" x="96 107.552 113.776 120 124.448 130.672 135.12 142.224 150.224 154.224 161.328 169.328 175.552 180 188 200.448 207.552 212.88 219.104 223.104 231.104 239.104 243.104 251.104 258.208 266.208 274.208 282.208 290.208 294.656 302.656 310.656 315.104 319.552 332 340 345.328 353.328 361.328 365.776 373.776 381.776 385.776 390.224 398.224 405.328 409.776 415.104 419.104 430.656 437.76 445.76 449.76 457.76 463.088 471.088 475.536 482.64 489.74403 494.19203 500.41603 504.41603 512.416 518.64 523.088 531.088 539.088 543.088 552.864 560.864 568.864">Assisted customers by debugging/improving their web projects using Zoom</tspan></text>
<text xml:space="preserve" transform="matrix(.75 0 0 .75 72 203.24414)" font-size="16" font-family="TimesNewRomanPSMT"><tspan y="14.9375" x="72">o</tspan></text>
<text xml:space="preserve" transform="matrix(.75 0 0 .75 72 203.24414)" font-size="16" font-family="TimesNewRomanPSMT"><tspan y="14.9375" x="96 104.896 110.22401 118.22401 126.22401 134.224 141.328 148.432 156.432 160.432 167.53601 175.53601 183.53601 187.98401 195.98401 203.98401 207.98401 214.20801 221.31201 233.76001 241.76001 246.20801 253.31201 259.536 263.536 267.984 275.984 279.984 286.208 293.312 301.312 308.41603 317.312 324.41603 329.74403 334.19203 342.19203 346.64 350.64 357.74403 365.74403 373.74403 377.74403 388.41603 396.41603 400.41603 404.864 412.864 416.864 422.19203 429.29603 435.52003 443.52003 447.96803 455.96803 463.07203 467.07203 471.52003 479.52003 484.84803 492.84803 499.95204 507.95204 512.4 520.4 524.4 531.504 539.504 545.728 550.176 558.176 570.624 577.728 583.056 587.056 594.16006 601.26406 607.48806 614.59207">Produced coding samples in JavaScript and C# to resolve in-depth customer cases</tspan></text>
<text xml:space="preserve" transform="matrix(.75 0 0 .75 72 217.04297)" font-size="16" font-family="TimesNewRomanPSMT"><tspan y="14.9375" x="72">o</tspan></text>
<text xml:space="preserve" transform="matrix(.75 0 0 .75 72 217.04297)" font-size="16" font-family="TimesNewRomanPSMT"><tspan y="14.9375" x="96 106.672 114.672 119.119998 123.56799 128.01599 132.01599 139.12 147.12 155.12 159.12 166.224 172.448 179.552 186.656 191.104 198.20801 202.656 209.76001 217.76001 221.76001 229.76001 237.76001 245.76001 249.76001 255.08802 262.19203 270.19203 278.19203 283.52003 287.96803 294.19203 298.19203 302.64 310.64 315.96803 323.96803 331.96803 339.96803 347.96803 351.96803 358.19203 362.64 367.96803 375.07203 379.07203 384.40003 392.40003 397.72804 401.72804 406.17604 414.17604 418.62403 425.72804 431.05604 439.05604 446.16004 450.60804 454.60804 462.60804 469.71205 477.71205 484.81605 489.26405 497.26405 505.26405 512.36807 517.69607 523.92007 527.92007 532.36807 540.36807 544.36807 549.69607 556.80007 563.02407 571.02407 575.47207 583.47207">Built and escalated bug reports through Jira for internal developers to resolve</tspan></text>
<text xml:space="preserve" transform="matrix(.75 0 0 .75 72 230.8418)" font-size="16" font-family="ArialMT"><tspan y="15.0078129" x="24">&#x25cf;</tspan></text>
<text xml:space="preserve" transform="matrix(.75 0 0 .75 72 230.8418)" font-size="16" font-family="TimesNewRomanPSMT"><tspan y="15.0078129" x="48 58.672 66.672 79.119998 91.56799 99.56799 107.56799 112.01599 119.119998 126.224 130.672 137.776 145.776 149.776 156.88 163.98401 169.31201 177.31201 183.53601 189.76001 193.76001 198.20801 206.20801 213.31201 217.31201 223.53601 230.64002 235.08802 242.19202 248.41602 252.41602 256.41603 268.864 275.96803 281.29603 289.29603 296.40003 300.84803 305.29603 313.29603 321.29603 325.29603 329.29603 337.29603 344.40003 352.40003 359.50404 363.95204 371.95204 379.95204 392.40003 399.50404 407.50404 411.95204 415.95204 419.95204 427.05604 435.05604 443.05604 447.05604 455.05604 460.38404 468.38404 476.38404 484.38404 491.48805 495.93605 499.93605 512.38406 519.48806 527.48806 534.59207 542.59207 549.69607 562.14407 569.24807 577.24807 581.69607 585.69607 590.14407 597.24807 604.35208 616.80007">Communicated across the sales, marketing, development, and product management teams</tspan></text>
<text xml:space="preserve" transform="matrix(.75 0 0 .75 72 244.69336)" font-size="16" font-family="TimesNewRomanPSMT"><tspan y="14.9375" x="48 52.448 60.448 64.448 72.448 76.895999 81.343997 85.343997 96.895999 104 111.104007 119.104007 123.552 131.552 135.552 143.552 151.552 158.656 163.104 169.328 173.328 178.656 186.656 191.98401 195.08594 206.63794 213.74195 218.18994 222.63794 230.63794 237.74195 248.41394 255.51795 263.51795 271.51795 276.84596 281.29396 287.51795 293.74195 302.63795 306.63795 313.74195 321.74195 329.74195 332.85157 344.40357 351.50758 355.95558 360.40357 368.40357 375.50758 386.17958 393.28358 401.28358 409.28358 414.61158 419.05958 425.28358 429.28358 440.83558 450.61158">to hit weekly goals for ActiveReportsJS and ActiveReports.NET</tspan></text>
<text xml:space="preserve" transform="matrix(.75 0 0 .75 72 258.4922)" font-size="16" font-family="TimesNewRomanPS" font-weight="bold"><tspan y="14.9375" x="0 8 16.896 25.792 30.24 38.239999 45.054689 48.765626 63.882814 70.98682 79.88282 83.88282 95.43482 102.538829 110.538829 117.64283 122.09083 130.09082 138.98682 146.09082">Junior Web Developer</tspan></text>
<text xml:space="preserve" transform="matrix(.75 0 0 .75 72 258.4922)" font-size="16" font-family="TimesNewRomanPS" font-weight="bold"><tspan y="14.9375" x="480 491.552 500.448 508.448 512.448 516.448 524.448 532.448 540.448 548.448 553.776 568.88 576.88 584.88 588.88 596.88 604.88 612.88">Aug. 2018-May 2020</tspan></text>
<text xml:space="preserve" transform="matrix(.75 0 0 .75 72 272.29103)" font-size="16" font-family="TimesNewRomanPSMT"><tspan y="14.9375" x="0 8.896001 16.896 23.12 31.12 39.120004 46.224004 54.224004 61.328004 69.328 77.328 84.43201 88.43201 99.98401 107.98401 112.43201 120.43201 127.53601 132.86402 139.08802 143.53601 147.98401">Susquehanna University</tspan></text>
<text xml:space="preserve" transform="matrix(.75 0 0 .75 72 286.08985)" font-size="16" font-family="TimesNewRomanPS" font-style="italic"><tspan y="14.9375" x="0 11.859375 18.963376 26.963376 33.187376 37.635377 42.083379 49.187379 53.187379 64.73938 71.84338 78.94739 86.05139 90.49939 98.49939 106.49939 118.05139 125.155399 133.1554 137.6034 141.6034 152.27539 156.72339 161.17139 169.17139 173.17139 184.72339 192.72339 197.17139 205.17139 213.17139 221.17139 227.39539 234.49939 238.49939 246.49939 253.6034 259.8274 264.2754 271.3794 282.9314">Website Development with Database Systems</tspan></text>
<text xml:space="preserve" transform="matrix(.75 0 0 .75 72 299.88868)" font-size="16" font-family="ArialMT"><tspan y="15.0078129" x="24">&#x25cf;</tspan></text>
<text xml:space="preserve" transform="matrix(.75 0 0 .75 72 299.88868)" font-size="16" font-family="TimesNewRomanPSMT"><tspan y="15.0078129" x="48 56.896 64.895999 69.343997 73.79199 79.119998 85.343997 89.79199 96.895999 104 112 116 124 131.104 139.104 146.20801 150.656 158.656 166.656 173.76001 179.08802 183.08802 187.53601 194.64002 200.86402 208.86402 215.96802 223.96802 227.96802 239.52002 243.96802 248.41602 256.41603 260.41603 267.52003 272.84803 279.95204 287.05604 291.50404 295.95204 303.95204 311.95204 316.40003 328.84803 335.95204 340.40003 348.40003 352.84803 359.95204 364.40003 372.40003 376.84803 384.84803 392.84803 396.84803 404.84803 412.84803 417.29603 425.29603 432.40003 437.72804 443.95204 448.40003 452.84803 460.84803 464.84803 476.40003 483.50404 491.50404 495.50404 503.50404 510.60804 518.60806 525.71206 531.93606 535.93606 542.16006 550.16006 557.26406 565.26406 569.26406 576.36807 582.59207 586.59207 593.69607">Full-stack developer tasked with creating/maintaining university web pages such as an</tspan></text>
<text xml:space="preserve" transform="matrix(.75 0 0 .75 72 313.74024)" font-size="16" font-family="TimesNewRomanPSMT"><tspan y="14.9375" x="48 55.104 67.552 74.656009 79.6875 87.6875 94.791507 102.791507 109.89551 117.89551 121.89551 128.99951 133.44751 140.55152 145.87952 150.32752 154.32752 160.55152 168.55152 174.77552 179.22351 186.32752 198.77552 202.77552 206.77552 212.99951 217.44751 225.44751 233.44751 240.55152 248.55152 252.99951 256.9995 264.9995 272.10353 279.20753 283.65553 288.10353 296.10353 300.10353 305.43153 312.53553 319.63954 327.63954 332.96754 340.96754 344.96754 348.96754 356.07154 364.07154 372.07154 376.07154 383.17555 391.17555 399.17555 404.50355 410.72755 417.83155 421.83155 427.15956 434.26356 442.26356 446.71156 452.93556 457.38356 462.71156 470.71156 474.71156 486.26356 490.71156 495.15956 503.15956 507.60755 515.60757 518.6719 530.2239 539.1199 546.25 550.25 561.802 571.578 581.0625 585.0625 599.2865 610.8385">emergency alert system, student health record, and course registry within ASP.NET MVC</tspan></text>
<text xml:space="preserve" transform="matrix(.75 0 0 .75 72 327.53907)" font-size="16" font-family="TimesNewRomanPSMT"><tspan y="14.9375" x="48 55.104 63.104 71.104007 75.552 80 87.104007 94.20801 98.656009 103.104007 111.104007 119.104007 125.328 129.328 136.432 144.432 152.432 160.432 167.53601 174.64002 179.08802 186.19202 194.19202 198.19202 202.64002 210.64002 214.64002 221.74402 225.74402 234.64002 246.19202 255.34375 259.34376 267.34376 274.44776 278.89576 285.99977 293.99977 301.10377 307.32777 314.43177 318.43177 326.43177 332.65577 337.10377 345.10377 353.10377 357.10377 366.87977 372.20777 383.75978 395.31178 399.31178 407.31178 415.31178 422.41578 427.74378 432.19178 439.29579">applications connected to a SQL database using LINQ queries</tspan></text>
<text xml:space="preserve" transform="matrix(.75 0 0 .75 72 341.3379)" font-size="16" font-family="ArialMT"><tspan y="15.0078129" x="24">&#x25cf;</tspan></text>
<text xml:space="preserve" transform="matrix(.75 0 0 .75 72 341.3379)" font-size="16" font-family="TimesNewRomanPSMT"><tspan y="15.0078129" x="48 57.776 65.776 73.776 80.880008 88.880008 95.98401 103.08801 111.08801 115.08801 119.53601 127.53601 134.64002 138.64002 146.64002 153.74402 160.84803 168.84803 173.29602 181.29602 185.29602 192.40003 200.40003 208.40003 212.40003 217.72803 225.72803 233.72803 240.83203 245.28003 249.72803 257.72804 265.72804 272.83204 277.28004 281.72804 286.17604 294.17604 298.17604 306.17604 311.50404 315.50404 327.05604 334.16004 342.16004 346.16004 354.16004 361.26405 369.26405 376.36805 382.59205 386.59205 398.14405 402.59205 407.04005 415.04005 419.04005 430.59205 440.36805 454.59205 464.36805 468.36805 472.36805 483.04005 491.93605 500.83204 504.83204 508.83204 515.93606 523.93606 531.93606 535.93606 542.16006 549.26406 557.26406 564.36807 573.26406 580.36807 585.69607 590.14407 598.14407">Enhanced the beauty and functionality of web pages with HTML, CSS, and JavaScript</tspan></text>
<text xml:space="preserve" transform="matrix(.75 0 0 .75 72 355.18946)" font-size="16" font-family="ArialMT"><tspan y="15.0078129" x="24">&#x25cf;</tspan></text>
<text xml:space="preserve" transform="matrix(.75 0 0 .75 72 355.18946)" font-size="16" font-family="TimesNewRomanPSMT"><tspan y="15.0078129" x="48 57.776 64.880008 71.98401 77.31201 85.31201 92.416019 100.416019 104.416019 108.86401 116.86401 120.86401 128.86402 135.08802 142.19202 146.19202 156.86402 164.86402 172.86402 177.31201 183.53601 187.98401 193.31201 200.41602 208.41602 212.41602 219.52002 227.52002 235.52002 239.52002 245.74402 257.29603 265.29603 272.40003 277.72804 285.72804 289.72804 294.17604 298.62403 306.62403 311.95204 319.05604 324.38404 328.83204 335.93605 342.16004 346.16004 350.60804 358.60804 362.60804 375.05604 382.16004 390.16004 397.26405 401.26405 409.26405 416.36805 424.36805 431.47206 435.92005 443.92005 451.92005 464.36805 471.47206 479.47206 483.92005 487.92005 493.24806 500.35206 506.57606 511.02406 518.12808">Learned to use Bootstrap and JQuery libraries to make development faster</tspan></text>
<text xml:space="preserve" transform="matrix(.75 0 0 .75 72 369.04103)" font-size="16" font-family="ArialMT"><tspan y="15.0078129" x="24">&#x25cf;</tspan></text>
<text xml:space="preserve" transform="matrix(.75 0 0 .75 72 369.04103)" font-size="16" font-family="TimesNewRomanPSMT"><tspan y="15.0078129" x="48 56.896 62.224 70.224 78.224 83.552 90.656009 103.104007 115.552 122.656009 130.656 134.656 141.76001 149.76001 162.20801 170.20801 174.656 181.76001 189.76001 193.76001 205.31201 212.41602 220.41602 224.41602 231.52002 239.52002 247.52002 253.74402 257.74403 262.19203 270.19203 276.41603 280.864 288.864 295.96803 299.96803 307.96803 313.29603 316.98439 327.57814 332.02613 338.25013 346.25013 353.35414 357.80213 361.80213 370.69813 375.14613 383.14613 391.14613 395.59413 403.59413 407.59413 415.59413 423.59413 431.59413 439.59413 443.59413 447.59413 455.59413 461.8181 468.92213 476.92213 480.92213 489.8181 501.37013 510.54689 514.5469 523.4429 530.5469 535.8749 543.8749 550.9789">Programmed complex web apps inside of Visual Studio 2019, used SQL Server</tspan></text>
<text xml:space="preserve" transform="matrix(.75 0 0 .75 72 384.97035)" font-size="16" font-family="TimesNewRomanPSMT"><tspan y="14.9375" x="48 62.224 69.328 77.328 84.43201 92.43201 99.53601 111.98401 119.08801 127.08801 131.53601 135.53601 144.432 148.88 156.88 164.88 169.328 177.328 181.328 185.776 193.776 197.776 204.88 212.88 217.328 221.776 225.776 233.776 240.88 245.328 252.432 256.432 261.76 268.864 275.96803 283.96803 289.29603 297.29603 303.52003 307.52003 311.52003 318.62403 326.62403 334.62403 338.62403 346.62403 352.84803 359.95204 367.95204 371.95204 382.62403 390.62403 395.95204 403.95204 416.40003 423.50404 427.50404 439.05604 446.16004 454.16004 462.77345 470.77345 478.77345 483.22145 489.44544 493.44544 497.89344 505.89344 509.89344 517.89346 524.99746 532.99746 540.99746 548.99746 553.44546 564.99746 572.99746 578.32546 586.32546 590.32546 601.87747 606.32546 610.77346">Management Studio to edit data records, and used Chrome DevTools to debug/work with</tspan></text>
<text xml:space="preserve" transform="matrix(.75 0 0 .75 72 400.839)" font-size="16" font-family="TimesNewRomanPSMT"><tspan y="14.9375" x="48 59.552003 71.104007">DOM</tspan></text>
<text xml:space="preserve" transform="matrix(.75 0 0 .75 72 416.70765)" font-size="21.333334" font-family="TimesNewRomanPS" font-weight="bold"><tspan y="19.916666" x="0 12.2673649 21.73381 31.200257 43.06195 54.923646 60.84929 70.315738 80.9798 86.90544 92.23747 104.09917 115.96086 121.886508 127.81215 133.7378">Technical Skills</tspan></text>
<text xml:space="preserve" transform="matrix(.75 0 0 .75 72 436.60609)" font-size="16" font-family="ArialMT"><tspan y="15.0078129" x="24">&#x25cf;</tspan></text>
<text xml:space="preserve" transform="matrix(.75 0 0 .75 72 436.60609)" font-size="16" font-family="TimesNewRomanPSMT"><tspan y="15.0078129" x="48 57.776 64.880008 72.880008 80.880008 88.880008 95.98401 103.98401 111.08801 117.31201 121.76001 125.76001 137.31201 147.08802 161.31201 171.08802 175.08802 179.08802 189.76001 198.656 207.552 211.552 215.552 224.448 232.448 237.776 244.88 248.88 255.104 262.208 270.208 277.312 286.208 293.312 298.64 303.088 311.088 315.536 319.536 323.536 334.208 342.208 346.208 349.90626 360.5 364.948 371.172 379.172 386.276 390.724 394.724 403.62 408.068 416.068 424.068 428.516 436.516 440.21876 448.875 455.979 461.307 473.755 478.203 486.203 493.307">Languages: HTML, CSS, Pure JavaScript, C#, Visual Studio Terminal</tspan></text>
<text xml:space="preserve" transform="matrix(.75 0 0 .75 72 450.45765)" font-size="16" font-family="ArialMT"><tspan y="15.0078129" x="24">&#x25cf;</tspan></text>
<text xml:space="preserve" transform="matrix(.75 0 0 .75 72 450.45765)" font-size="16" font-family="TimesNewRomanPSMT"><tspan y="15.0078129" x="48 56.896 62.224 69.328 81.776 88.880008 100.43201 108.43201 113.76001 121.76001 127.98401 132.432 142.20801 146.656 154.656 159.98401 167.08802 172.41602 176.86402 183.96802 190.19202 194.64002 198.64002 209.31201 216.41602 223.52002 230.62403 235.07202 239.07202 243.07202 254.62403 262.62403 270.62403 277.72804 281.72804 286.17604 292.40003 296.40003 299.4922 311.0442 319.0442 327.0442 335.0442 339.4922 346.5962 351.28126 355.28126 359.28126 363.28126 374.83326 384.60926 394.09376 398.09376 406.09376 410.54176 418.54176 422.54176 426.54176 430.54176 442.09376 451.86976 461.35157 465.35157 474.24757 479.57557 486.67958 499.12757 506.23158 517.78359 525.78359 531.1116 539.1116 543.1116 547.1116 551.1116 562.6636 572.4396 581.9219 585.9219 596.5939 604.5939 609.9219">Frameworks/Libraries: React, Node.js, Angular, .NET 5/6, .NET Framework, .NET Core</tspan></text>
<text xml:space="preserve" transform="matrix(.75 0 0 .75 72 464.3092)" font-size="16" font-family="ArialMT"><tspan y="15.0078129" x="24">&#x25cf;</tspan></text>
<text xml:space="preserve" transform="matrix(.75 0 0 .75 72 464.3092)" font-size="16" font-family="TimesNewRomanPSMT"><tspan y="15.0078129" x="48 59.552003 66.656009 71.104007 78.20801 86.20801 93.31201 99.53601 106.640018 110.640018 115.08801 122.19202 130.19202 138.19202 146.19202 153.29602 161.29602 168.40003 174.62403 179.07202 190.62403 199.52002 204.84803 211.07202 215.52002 219.52002 225.74402 234.64002 246.19202 257.74403 261.74403 265.74403 276.41603 286.19203 295.088 303.67189 307.67189 311.67189 320.56788 332.11988 341.89588 345.89588 349.89588 364.11988 372.11988 380.11988 388.11988 396.11988 407.67189 418.34388 422.34388 433.89588 438.34388 442.34388 456.56788 464.56788 472.56788 480.56788 488.56788 496.56788 502.79188 509.89588 513.8959 517.8959 526.7919 531.23989 536.5679 543.6719 551.6719 558.7759 564.9999 572.1039 576.1039 580.1039 591.6559 603.2079 610.3119 614.7599">Database languages/APIs: JSON, REST, SQL, MongoDB w/ Mongoose, Firebase, OData</tspan></text>
<text xml:space="preserve" transform="matrix(.75 0 0 .75 72 478.16078)" font-size="16" font-family="ArialMT"><tspan y="15.0078129" x="24">&#x25cf;</tspan></text>
<text xml:space="preserve" transform="matrix(.75 0 0 .75 72 478.16078)" font-size="16" font-family="TimesNewRomanPSMT"><tspan y="15.0078129" x="48 56.65625 64.65625 72.65625 77.10425 83.32825 87.776248 91.776248 103.32825 107.776248 112.22424 116.22424 120.22424 131.77625 138.88025 144.20825 152.20825 160.20825 168.20825 172.20825 176.20825 187.76026 194.86426 199.31226 203.76026 208.20825 213.53626 220.48438 224.48438 228.19532 239.74732 248.64331 252.64331 263.3153 271.3153 279.3153 286.4193 290.4193 294.1328 305.6848 314.5808 318.5808 326.5808 334.5808 342.5808 350.5808 354.5808 358.5808 364.8048 369.2528 374.5808 381.6848 386.1328 396.8048 404.8048 412.8048 418.1328 422.5808 430.5808 437.6848 445.6848 452.78883 459.89283 463.89283 467.89283 474.99684 479.44483 486.54884">Tools: Git, Heroku, Netlify, VS Code, VS 2022, Jira/Confluence, etc.</tspan></text>
<text xml:space="preserve" transform="matrix(.75 0 0 .75 72 492.01234)" font-size="21.333334" font-family="TimesNewRomanPS" font-weight="bold"><tspan y="19.916666" x="0 15.402496 24.868943 30.794587 41.45865 48.56108 58.027528 69.88922 75.22125 88.24933 97.33035 107.994419 115.09685 124.56329 134.02974 141.13217">Related Projects</tspan></text>
<text xml:space="preserve" transform="matrix(.75 0 0 .75 72 511.91078)" font-size="16" font-family="ArialMT"><tspan y="15.0078129" x="24">&#x25cf;</tspan></text>
<text xml:space="preserve" transform="matrix(.75 0 0 .75 72 511.91078)" font-size="16" font-family="TimesNewRomanPSMT"><tspan y="15.0078129" x="48 58.672 64 71.104007 78.20801 82.656009 89.76001 97.76001 101.76001 108.86401 112.86401 124.416019 128.86402 135.08802 142.19202 150.19202 155.52002 163.52002 167.52002 179.96802 187.96802 194.19202 198.64002 205.74402 210.19202 217.29602 225.29602 237.74402 242.19202 250.19202 254.64002 260.864 265.312 270.64 277.74403 282.19203 286.64 294.64 302.64 306.64 314.64 322.64 327.088 331.088 342.64 347.088 351.536 359.536 363.536 375.088 379.536 385.76 392.864 400.864 406.19203 414.19203 418.19203 422.64 428.864 432.864 440.864 447.088 451.536 459.536 467.536 471.536 483.088 491.088 499.088 506.19203 510.19203 514.64">Created a Discord music/administration bot with Discord.js using Node.js</tspan></text>
<text xml:space="preserve" transform="matrix(.75 0 0 .75 72 525.7623)" font-size="16" font-family="ArialMT"><tspan y="15.0078129" x="72">&#x25cb;</tspan></text>
<text xml:space="preserve" transform="matrix(.75 0 0 .75 72 525.7623)" font-size="16" font-family="TimesNewRomanPSMT"><tspan y="15.0078129" x="96 106.672 113.776 121.776 125.776 133.776 138.224 145.328 153.328 157.328 161.776 169.776 176.88 189.328 196.432 200.432 206.656 214.656 222.656 230.656 236.88 240.88 246.20801 251.53601 259.536 271.984 275.984 283.984 291.984 299.984 304.432 312.432 320.432 327.536 331.536 343.088 351.088 358.19203 366.19203 370.19203 378.19203 384.41603 391.52003 396.84803 403.07203 407.07203 411.52003 419.52003 423.96803 431.96803 435.96803 439.96803 447.07203 455.07203 463.07203 467.07203 473.29603 481.29603 489.29603 497.29603 503.52003 507.52003 511.96803 519.968 523.968 531.968 539.968 547.072 555.072 562.176 566.176 570.176 576.4 584.4 588.848">Can play theme songs from youtube when users join, add songs to queue, skip</tspan></text>
<text xml:space="preserve" transform="matrix(.75 0 0 .75 72 539.6139)" font-size="16" font-family="TimesNewRomanPSMT"><tspan y="14.9375" x="96 102.224 110.224 118.224 126.224 132.448 136.448 140.448 148.448 155.552 160 167.104 171.552 178.656 182.656 188.88 196.88 204.88 212.88 219.104 223.104 228.432 233.76001 241.76001 254.20801 258.208 266.208 274.208 281.312 289.312 296.41603 300.41603 304.41603 312.41603 319.52003 323.96803 327.96803 334.19203 341.29603 346.62403 354.62403 361.72804 367.05604 371.05604 375.50404 383.50404 388.83204 396.83204 400.83204 404.83204 412.83204 419.93605 424.38404 428.38404 436.38404 442.60804 449.71205 455.04005 459.04005 465.26405 472.36805 476.81605 481.26405 485.71205 493.71205 501.71205 507.93605 511.93605 515.93606 523.04006 527.48806 534.59207">songs, delete songs from queue, get server info, get user settings, etc.</tspan></text>
<text xml:space="preserve" transform="matrix(.75 0 0 .75 72 553.4127)" font-size="16" font-family="ArialMT"><tspan y="15.0078129" x="24">&#x25cf;</tspan></text>
<text xml:space="preserve" transform="matrix(.75 0 0 .75 72 553.4127)" font-size="16" font-family="TimesNewRomanPSMT"><tspan y="15.0078129" x="48 58.672 64 71.104007 78.20801 82.656009 89.76001 97.76001 101.76001 111.53601 116.86401 127.53601 135.53601 147.98401 160.432 167.53601 172.86402 179.96802 187.07202 191.07202 197.29602 201.74402 206.19202 213.29602 217.29602 225.29602 231.52002 235.96802 243.96802 251.96802 255.96802 266.64 273.74403 280.84803 287.95204 292.40003 296.40003 300.40003 311.07203 318.17604 326.17604 334.17604 342.17604 346.17604 350.17604 359.07203 363.52003 368.84803 375.95204 383.95204 391.05604 397.28004 404.38404 408.38404 412.38404 421.28004 425.72804 431.05604 438.16004 444.38404 448.83204 456.83204 462.16004 469.26405 473.26405 480.36805 488.36805 492.81605 500.81605 507.92005 515.92007 520.36807 524.81607 531.92007 539.02407 543.47207 547.92007 555.92007 563.92007">Created E-Commerce site using React, Redux, Firebase, Firestore authentication,</tspan></text>
<text xml:space="preserve" transform="matrix(.75 0 0 .75 72 567.2643)" font-size="16" font-family="TimesNewRomanPSMT"><tspan y="14.9375" x="48 59.552003 69.328 83.552 93.328 97.776 108.448 117.344 126.240009 130.24 135.56801 139.56801 151.12001 158.22402 166.22402 170.67201 178.67201 186.67201 193.77602 201.77602 205.77602 213.77602 220.00002 224.44802 232.44802 240.44802 244.44802 252.44802 259.552 264 268.448 272.896 278.224 286.224 290.224 297.328 305.328 313.328 317.328 325.328 329.776">HTML/CSS - Deployed using netlify and git</tspan></text>
<text xml:space="preserve" transform="matrix(.75 0 0 .75 72 581.0631)" font-size="21.333334" font-family="TimesNewRomanPS" font-weight="bold"><tspan y="19.916666" x="0 15.402496 24.868943 34.33539 41.43782 47.363466 54.465898 60.39154 69.85799 80.52205 87.62448 97.09093">Certificates</tspan></text>
<text xml:space="preserve" transform="matrix(.75 0 0 .75 72 600.96157)" font-size="16" font-family="ArialMT"><tspan y="15.0078129" x="24">&#x25cf;</tspan></text>
<text xml:space="preserve" transform="matrix(.75 0 0 .75 72 600.96157)" font-size="16" font-family="TimesNewRomanPSMT"><tspan y="15.0078129" x="48 59.552003 67.552 74.656009 87.104007 95.104007 99.104007 109.776 117.776 125.776 131.104 137.328 144.432">Udemy Courses</tspan></text>
<text xml:space="preserve" transform="matrix(.75 0 0 .75 72 614.8131)" font-size="16" font-family="TimesNewRomanPSMT"><tspan y="14.9375" x="72">o</tspan></text>
<text xml:space="preserve" transform="matrix(.75 0 0 .75 72 614.8131)" font-size="16" font-family="TimesNewRomanPSMT"><tspan y="14.9375" x="96 104 112 116 127.552 135.552 143.552 148.88 152.88 163.552 171.552 184 192 196.448 203.552 208 215.104 219.104 229.776 236.88 243.98401 251.08802 255.53601 259.536 270.208 278.208 286.208 291.536 297.76 304.864 308.864 314.19203 324.864 331.96803 339.96803 347.96803 355.96803 359.96803 363.96803 374.64 382.64 390.64 395.088 402.19203 410.19203 414.64 417.72657 429.27857 438.17457 443.50257 447.50257 451.50257 460.39857 467.50257 475.50257 482.60658 488.83058 492.83058 496.83058 508.38258 516.38259 524.38259 532.38259 538.60659 542.60659 546.60659 555.50259 559.95059 565.27859 572.38259 580.38259 587.4866 593.7106 600.8146">40 Hour Complete React Course (Redux, Context API, Sagas, Hooks, Firebase)</tspan></text>
<text xml:space="preserve" transform="matrix(.75 0 0 .75 72 628.61196)" font-size="16" font-family="TimesNewRomanPSMT"><tspan y="14.9375" x="72">o</tspan></text>
<text xml:space="preserve" transform="matrix(.75 0 0 .75 72 628.61196)" font-size="16" font-family="TimesNewRomanPSMT"><tspan y="14.9375" x="96 104 112 116 127.552 135.552 143.552 148.88 152.88 161.776 169.776 174.224 178.672 182.672 191.568 196.01599 203.12 210.224 218.224 222.224 233.776 240.88 248.88 255.98401 260.432 268.432 276.432 283.536 288.864 292.864 303.536 311.536 319.536 324.864 331.088 338.19203 342.19203 347.52003 359.07203 367.07203 375.07203 382.17604 386.17604 390.62403 396.84803 400.84803 404.54689 414.32814 421.43214 429.43214 433.88014 438.32814 442.77613 449.88014 453.88014 460.10414 469.00013 473.00013 477.00013 491.22413 499.22413 507.22413 515.2241 523.2241 534.7761 545.4481">65 Hour Full Stack Developer Course (Node.js, Vanilla JS, MongoDB)</tspan></text>
<text xml:space="preserve" transform="matrix(.75 0 0 .75 72 642.41079)" font-size="21.333334" font-family="TimesNewRomanPS" font-weight="bold"><tspan y="19.916666" x="0 14.225693 26.087388 37.94908 47.415529 58.07959 65.18202 71.107669 81.77173">Education</tspan></text>
<text xml:space="preserve" transform="matrix(.75 0 0 .75 72 662.3092)" font-size="16" font-family="TimesNewRomanPS" font-weight="bold"><tspan y="14.9375" x="0 10.672001 18.672 25.776001 34.672 41.776 46.224004 54.224004 61.03125 65.03125 73.03125 78.35925 82.35925 91.25526 98.35926 102.80726 109.91126 118.80727 125.91127 133.01528 137.01528 141.01528 152.56728 160.56728 173.89528 182.79128 191.68727 197.01528 204.11928 210.92969 214.92969 223.82569 230.92969 235.37769 242.48169 251.37769 258.4817">Bachelor of Science, Computer Science</tspan></text>
<text xml:space="preserve" transform="matrix(.75 0 0 .75 72 662.3092)" font-size="16" font-family="TimesNewRomanPS" font-weight="bold"><tspan y="14.9375" x="480 491.552 500.448 508.448 512.448 516.448 524.448 532.448 540.448 548.448 553.776 568.88 576.88 584.88 588.88 596.88 604.88 612.88">Aug. 2016-May 2020</tspan></text>
<text xml:space="preserve" transform="matrix(.75 0 0 .75 72 676.10806)" font-size="16" font-family="TimesNewRomanPSMT"><tspan y="14.9375" x="0 8.896001 16.896 23.12 31.12 39.120004 46.224004 54.224004 61.328004 69.328 77.328 84.43201 88.43201 99.98401 107.98401 112.43201 120.43201 127.53601 132.86402 139.08802 143.53601 147.98401 154.9375 158.9375 162.9375 171.8335 178.9375 183.3855 187.8335 195.8335 202.0575 210.0575 215.3855 223.3855 231.3855 238.4895 242.4895 246.4895 253.91407">Susquehanna University, Selinsgrove, PA</tspan></text>
<text xml:space="preserve" transform="matrix(.75 0 0 .75 72 689.90689)" font-size="16" font-family="TimesNewRomanPS" font-weight="bold"><tspan y="14.9375" x="0 12.448001 19.552002 27.552002 36.448 45.344 53.344 58.672 65.776">Graduated</tspan></text>
<text xml:space="preserve" transform="matrix(.75 0 0 .75 72 689.90689)" font-size="16" font-family="TimesNewRomanPS" font-weight="bold"><tspan y="14.9375" x="78.671878 87.56788 96.46388 109.791889 123.11989 131.11989 135.11989 146.67189 155.56789 168.89589 172.89589 183.56789 191.56789 200.46389 209.35988 216.46389 220.46389 224.46389 236.01589 244.91188 258.23988 267.13587 271.58387 279.58387 284.91188 289.35987 297.35987 304.46388 308.46388 320.91188 329.5078 341.0598 346.38783 350.38783 358.38783 362.38783 370.38783 378.38783 382.83583 390.83583 394.83583">Summa Cum Laude, Cumulative GPA: 3.85/4.0</tspan></text>
<text xml:space="preserve" transform="matrix(.75 0 0 .75 72 703.7057)" font-size="16" font-family="ArialMT"><tspan y="15.0078129" x="24">&#x25cf;</tspan></text>
<text xml:space="preserve" transform="matrix(.75 0 0 .75 72 703.7057)" font-size="16" font-family="TimesNewRomanPSMT"><tspan y="15.0078129" x="48 58.672 64 71.104007 78.20801 82.656009 89.76001 97.76001 101.76001 107.08801 115.08801 123.08801 130.19202 134.64002 139.08802 147.08802 155.08802 162.19202 166.64002 170.64002 177.74402 185.74402 198.19202 206.19202 210.64002 215.08802 222.19202 227.52002 231.52002 235.96802 243.96802 247.96802 258.64 262.64 267.96803 275.96803 281.29603 285.29603 294.19203 301.29603 309.29603 313.74403 321.74403 327.07203 331.07203 341.74403 348.84803 356.84803 363.07203 367.52003 375.52003 383.52003">Created functional compiler in C for Senior Capstone</tspan></text>
<text xml:space="preserve" transform="matrix(.75 0 0 .75 72 717.55728)" font-size="16" font-family="ArialMT"><tspan y="15.0078129" x="24">&#x25cf;</tspan></text>
<text xml:space="preserve" transform="matrix(.75 0 0 .75 72 717.55728)" font-size="16" font-family="TimesNewRomanPSMT"><tspan y="15.0078129" x="48 56.896 61.344 69.344 77.344 85.344 88.46094 100.01294 108.01294 113.34094 121.34094 128.44495 136.44495 140.44495 144.44495 155.99695 163.10095 167.54895 174.65296 182.65296 189.75696 197.75696 205.75696 211.98096 215.98096 221.30896 227.53296 231.98096 239.08496 247.08496 255.08496 261.30897 265.30897 273.30897 277.30897 281.75697 294.20497 306.65296 313.75697 319.08497 325.30897 332.41297 340.41297 344.41297 348.86097 356.86097 360.86097 368.86097 375.96498 387.51698 391.51698 398.62098 406.62098 411.06898 415.51698 423.51698 428.84498 435.94898 439.94898 443.94898 451.05299 459.05299 471.50099 483.94898 491.94898 499.94898 504.39698 511.50099 518.605 523.053 530.157 538.157 542.157 546.605 554.605 559.933 567.933 575.933 583.933">Study Abroad, Galapagos Islands &#x2013; immersed in new culture, communicated through</tspan></text>
<text xml:space="preserve" transform="matrix(.75 0 0 .75 72 731.4088)" font-size="16" font-family="TimesNewRomanPSMT"><tspan y="14.9375" x="48 56.896 64.895999 72 80 84.448 90.672 98.672 102.672 114.224 118.672 123.119998 131.12 135.12 143.12 151.12 157.344 161.79199 165.79199 171.12 178.224 190.672 195.12 199.568 206.51563 210.51563 214.51563 218.96363 226.96363 234.96363 240.29163 248.29163 255.39563 259.84364 266.94764 274.94764 278.94764 286.05165 294.05165 302.05165 309.15565 314.48365 318.93165 326.03565 334.03565 341.13966 348.24366 352.24366 360.24366 368.24366 375.34767 380.67567 384.67567 389.12367 397.12367 402.45167 409.55567 416.65968 420.65968 432.21168 439.31568 446.41969 454.41969">Spanish with host family, journaled experience over three weeks</tspan></text>
<path transform="matrix(.75,0,0,.75,72,58.998048)" stroke-width="1.3333334" stroke-linecap="butt" stroke-miterlimit="10" stroke-linejoin="miter" fill="none" stroke="#1155cc" d="M 50.666669 16.669272 L 284 16.669272 "/>
</g>
</svg>
